<svg height="480.07663pt" viewBox="0 0 480.07663 480.07663" width="480.07663pt" xmlns="http://www.w3.org/2000/svg"><path d="m304 56v-32c0-8.835938-7.164062-16-16-16h-96c-8.835938 0-16 7.164062-16 16v32c0 8.835938 7.164062 16 16 16h96c8.835938 0 16-7.164062 16-16zm0 0" fill="#1a6fb0"/><path d="m376 240v64h96v-64zm0 0" fill="#5eac24"/><path d="m192 272v32h96v-64h-96zm0 0" fill="#5eac24"/><path d="m160 160 80 40 80-40-80-40zm0 0" fill="#ff5023"/><path d="m8 240v64h96v-64zm0 0" fill="#5eac24"/><path d="m104 424c0 26.507812-21.492188 48-48 48s-48-21.492188-48-48 21.492188-48 48-48 48 21.492188 48 48zm0 0" fill="#ab2300"/><path d="m472 424c0 26.507812-21.492188 48-48 48s-48-21.492188-48-48 21.492188-48 48-48 48 21.492188 48 48zm0 0" fill="#00b6bd"/><path d="m312 424c0 26.507812-21.492188 48-48 48s-48-21.492188-48-48 21.492188-48 48-48 48 21.492188 48 48zm0 0" fill="#ffcd00"/><path d="m472 312c4.417969 0 8-3.582031 8-8v-64c0-4.417969-3.582031-8-8-8h-40v-72c0-4.417969-3.582031-8-8-8h-102.113281l-73.886719-36.945312v-35.054688h40c13.253906 0 24-10.746094 24-24v-32c0-13.253906-10.746094-24-24-24h-96c-13.253906 0-24 10.746094-24 24v32c0 13.253906 10.746094 24 24 24h40v35.054688l-75.574219 37.785156c-2.71875 1.351562-4.433593 4.125-4.433593 7.160156s1.714843 5.808594 4.433593 7.160156l75.574219 37.785156v27.054688h-40c-4.417969 0-8 3.582031-8 8v24h-72v-24c0-4.417969-3.582031-8-8-8h-96c-4.417969 0-8 3.582031-8 8v64c0 4.417969 3.582031 8 8 8h40v56c.03125.207031.074219.414062.128906.617188-29.105468 4.132812-50.0625 30.066406-47.988281 59.386718 2.070313 29.324219 26.460937 52.054688 55.859375 52.054688s53.789062-22.730469 55.859375-52.054688c2.074219-29.320312-18.882813-55.253906-47.988281-59.386718.054687-.203126.097656-.410157.128906-.617188v-56h40c4.417969 0 8-3.582031 8-8v-24h72v24c0 4.417969 3.582031 8 8 8h96c4.417969 0 8-3.582031 8-8v-64c0-4.417969-3.582031-8-8-8h-40v-27.054688l73.886719-36.945312h94.113281v64h-40c-4.417969 0-8 3.582031-8 8v64c0 4.417969 3.582031 8 8 8h40v56.640625c-24.527344 3.566406-43.792969 22.832031-47.359375 47.359375h-49.28125c-4.195313-29.070312-30.140625-49.960938-59.433594-47.855469-29.296875 2.101563-51.992187 26.484375-51.992187 55.855469s22.695312 53.753906 51.992187 55.855469c29.292969 2.105469 55.238281-18.785157 59.433594-47.855469h49.28125c4.085937 28.585938 29.238281 49.378906 58.085937 48.015625 28.84375-1.367187 51.921876-24.445313 53.289063-53.289063 1.363281-28.847656-19.429687-54-48.015625-58.085937v-56.640625zm-288-256v-32c0-4.417969 3.582031-8 8-8h96c4.417969 0 8 3.582031 8 8v32c0 4.417969-3.582031 8-8 8h-96c-4.417969 0-8-3.582031-8-8zm-88 368c0 22.089844-17.910156 40-40 40s-40-17.910156-40-40 17.910156-40 40-40c22.082031.027344 39.972656 17.917969 40 40zm0-128h-80v-48h80zm184 0h-80v-48h80zm-40-104.945312-62.113281-31.054688 62.113281-31.054688 62.113281 31.054688zm24 272.945312c-22.089844 0-40-17.910156-40-40s17.910156-40 40-40 40 17.910156 40 40c-.027344 22.082031-17.917969 39.972656-40 40zm200-40c0 22.089844-17.910156 40-40 40s-40-17.910156-40-40 17.910156-40 40-40c22.082031.027344 39.972656 17.917969 40 40zm-80-176h80v48h-80zm0 0" fill="#231f20"/></svg>